<svg xmlns="http://www.w3.org/2000/svg" viewBox="0 0 48 48" fill="none">
  <path d="M12 8C12 5.79086 13.7909 4 16 4H32C34.2091 4 36 5.79086 36 8V12H12V8Z" fill="#2563EB"/>
  <path d="M12 12H36V32C36 38.6274 30.6274 44 24 44C17.3726 44 12 38.6274 12 32V12Z" fill="#F8FAFC"/>
  <path d="M20 20C20 19.4477 19.5523 19 19 19C18.4477 19 18 19.4477 18 20V24C18 24.5523 18.4477 25 19 25C19.5523 25 20 24.5523 20 24V20Z" fill="#1E293B"/>
  <path d="M28 20C28 19.4477 28.4477 19 29 19C29.5523 19 30 19.4477 30 20V24C30 24.5523 29.5523 25 29 25C28.4477 25 28 24.5523 28 24V20Z" fill="#1E293B"/>
  <path d="M19 32C19 33.6569 21.2386 35 24 35C26.7614 35 29 33.6569 29 32" stroke="#1E293B" stroke-width="2" stroke-linecap="round"/>
</svg>
